# xmcd
#
# Track frame offsets: 
#        150
#        13731
#        24700
#        39576
#        58026
#        71858
#        85568
#        100041
#        114751
#        127051
#        139643
#        160550
#
# Disc length: 2269 seconds
#
# Revision: 0
# Processed by: cddbd v1.4PL0 Copyright (c) Steve Scherf et al.
# Submitted via: ExactAudioCopy v0.90b4
#
DISCID=9508db0c
DTITLE=Summer Church - Heaven's Front Door
DYEAR=1999
DGENRE=Vocal
TTITLE0=Heaven's Front Door
TTITLE1=Open Up Your Heart (and Let Him In)
TTITLE2=What A Friend We Have in Jesus
TTITLE3=Brighten the Corner
TTITLE4=Wayfaring Stranger
TTITLE5=Joshua Fought the Battle of Jericho
TTITLE6=Thorn in Jesus' Crown
TTITLE7=He Was Tempted
TTITLE8=Jesus Savior Pilot Me
TTITLE9=Road of Life
TTITLE10=Chosen Instruments - Simple Gifts
TTITLE11=Wait No More
EXTD=
EXTT0=
EXTT1=
EXTT2=
EXTT3=
EXTT4=
EXTT5=
EXTT6=
EXTT7=
EXTT8=
EXTT9=
EXTT10=
EXTT11=
PLAYORDER=
